<svg data-glow="54 72 7; 74 82 6" xmlns="http://www.w3.org/2000/svg" viewBox="0 0 128 128" width="128" height="128" data-anchor="64 64" data-world="0.21" data-grime="1.0">
  <!-- Krater: bazaltowy głaz z żarzącym się pęknięciem. -->
  <ellipse cx="70" cy="74" rx="56" ry="42" fill="#000" opacity="0.35"/>
  <g stroke="#1a120c" stroke-width="3" stroke-linejoin="round" stroke-linecap="round">
    <path d="M113.7 87.4 L88.0 117.6 L48.5 122.3 L19.1 95.7 L11.0 55.6 L41.4 29.1 L79.2 22.8 L112.4 46.5 Z" fill="#241f1c"/>
    <path d="M113.7 79.4 L88.0 109.6 L48.5 114.3 L19.1 87.7 L11.0 47.6 L41.4 21.1 L79.2 14.8 L112.4 38.5 Z" fill="#3a322e"/>
  </g>
  <path d="M26 42 L56 24 L70 52 L40 68 Z" fill="#524843" stroke="#1a120c" stroke-width="1.5"/>
  <path d="M70 52 L100 38 L106 74 L76 82 Z" fill="#3a322e" stroke="#1a120c" stroke-width="1.5"/>
  <path d="M40 68 L76 82 L66 106 L30 90 Z" fill="#241f1c" stroke="#1a120c" stroke-width="1.5"/>
  <path d="M34 76 L54 70 L68 84 L88 78" stroke="#8a2e0a" stroke-width="5" fill="none" stroke-linejoin="round"/>
  <path d="M34 76 L54 70 L68 84 L88 78" stroke="#ff6b1a" stroke-width="2.2" fill="none" stroke-linejoin="round"/>
  <path d="M41.2 43.5 L45.7 43.5" stroke="#1f2226" stroke-width="1.1" stroke-linecap="round" opacity="0.6"/>
  <path d="M41.2 42.7 L45.7 42.7" stroke="#a3acb6" stroke-width="0.9" stroke-linecap="round"/>
  <path d="M73.5 49.2 L76.5 47.9" stroke="#1f2226" stroke-width="1.1" stroke-linecap="round" opacity="0.6"/>
  <path d="M73.5 48.4 L76.5 47.1" stroke="#a3acb6" stroke-width="0.9" stroke-linecap="round"/>
  <path d="M63.1 31.8 L65.4 31.2" stroke="#1f2226" stroke-width="1.1" stroke-linecap="round" opacity="0.6"/>
  <path d="M63.1 31.0 L65.4 30.4" stroke="#a3acb6" stroke-width="0.9" stroke-linecap="round"/>
  <path d="M38.3 38.6 L34.9 39.2" stroke="#1f2226" stroke-width="1.1" stroke-linecap="round" opacity="0.6"/>
  <path d="M38.3 37.8 L34.9 38.4" stroke="#a3acb6" stroke-width="0.9" stroke-linecap="round"/>
  <path d="M43.1 28.9 L39.5 29.5" stroke="#1f2226" stroke-width="1.1" stroke-linecap="round" opacity="0.6"/>
  <path d="M43.1 28.1 L39.5 28.7" stroke="#a3acb6" stroke-width="0.9" stroke-linecap="round"/>
</svg>
